<svg width="36" height="36" viewBox="0 0 36 36" fill="none" xmlns="http://www.w3.org/2000/svg">
<circle cx="18" cy="18" r="18" fill="#595DEB"/>
<path d="M23 18.5C23.2761 18.5 23.5 18.2761 23.5 18C23.5 17.7239 23.2761 17.5 23 17.5C22.7239 17.5 22.5 17.7239 22.5 18C22.5 18.2761 22.7239 18.5 23 18.5Z" fill="white" stroke="white" stroke-linecap="round" stroke-linejoin="round"/>
<path d="M18 18.5C18.2761 18.5 18.5 18.2761 18.5 18C18.5 17.7239 18.2761 17.5 18 17.5C17.7239 17.5 17.5 17.7239 17.5 18C17.5 18.2761 17.7239 18.5 18 18.5Z" fill="white" stroke="white" stroke-linecap="round" stroke-linejoin="round"/>
<path d="M13 18.5C13.2761 18.5 13.5 18.2761 13.5 18C13.5 17.7239 13.2761 17.5 13 17.5C12.7239 17.5 12.5 17.7239 12.5 18C12.5 18.2761 12.7239 18.5 13 18.5Z" fill="white" stroke="white" stroke-linecap="round" stroke-linejoin="round"/>
<path d="M18 28C23.5228 28 28 23.5228 28 18C28 12.4771 23.5228 8 18 8C12.4771 8 8 12.4771 8 18C8 19.8214 8.48697 21.5291 9.33782 23L8.5 27.5L13 26.6622C14.4709 27.513 16.1786 28 18 28Z" fill="white" stroke="white" stroke-linecap="round" stroke-linejoin="round"/>
</svg>
