<svg width="26" height="26" viewBox="0 0 26 26" fill="none" xmlns="http://www.w3.org/2000/svg">
<path d="M18.9999 13.6004C19.3312 13.6004 19.5999 13.3317 19.5999 13.0004C19.5999 12.6691 19.3312 12.4004 18.9999 12.4004C18.6686 12.4004 18.3999 12.6691 18.3999 13.0004C18.3999 13.3317 18.6686 13.6004 18.9999 13.6004Z" fill="#7D7D7D" stroke="#7D7D7D" stroke-linecap="round" stroke-linejoin="round"/>
<path d="M12.9999 13.6004C13.3312 13.6004 13.5999 13.3317 13.5999 13.0004C13.5999 12.6691 13.3312 12.4004 12.9999 12.4004C12.6686 12.4004 12.3999 12.6691 12.3999 13.0004C12.3999 13.3317 12.6686 13.6004 12.9999 13.6004Z" fill="#7D7D7D" stroke="#7D7D7D" stroke-linecap="round" stroke-linejoin="round"/>
<path d="M6.9999 13.6004C7.33127 13.6004 7.5999 13.3317 7.5999 13.0004C7.5999 12.6691 7.33127 12.4004 6.9999 12.4004C6.66853 12.4004 6.3999 12.6691 6.3999 13.0004C6.3999 13.3317 6.66853 13.6004 6.9999 13.6004Z" fill="#7D7D7D" stroke="#7D7D7D" stroke-linecap="round" stroke-linejoin="round"/>
<path d="M13 25C19.6274 25 25 19.6274 25 13C25 6.37258 19.6274 1 13 1C6.37258 1 1 6.37258 1 13C1 15.1857 1.58436 17.2349 2.60538 19L1.6 24.4L7 23.3946C8.76504 24.4156 10.8143 25 13 25Z" fill="#7D7D7D" stroke="#7D7D7D" stroke-linecap="round" stroke-linejoin="round"/>
</svg>
