<svg width="64" height="23" viewBox="0 0 64 23" fill="none" xmlns="http://www.w3.org/2000/svg">
<path d="M0.0917969 1.19922C0.775391 1.27734 1.35156 1.33594 1.82031 1.375C2.28906 1.39453 2.66016 1.41406 2.93359 1.43359C3.26562 1.45312 3.5293 1.46289 3.72461 1.46289C4.05664 1.46289 4.4375 1.45312 4.86719 1.43359C5.23828 1.41406 5.66797 1.38477 6.15625 1.3457C6.66406 1.28711 7.21094 1.19922 7.79688 1.08203C7.52344 1.375 7.29883 1.6582 7.12305 1.93164C6.94727 2.18555 6.81055 2.41992 6.71289 2.63477C6.5957 2.86914 6.49805 3.08398 6.41992 3.2793C6.3418 3.5332 6.25391 3.92383 6.15625 4.45117C6.05859 4.90039 5.95117 5.53516 5.83398 6.35547C5.73633 7.17578 5.60938 8.25 5.45312 9.57812C6.11719 9.59766 6.69336 9.60742 7.18164 9.60742C7.66992 9.58789 8.08008 9.57812 8.41211 9.57812H9.37891C9.65234 9.55859 9.96484 9.53906 10.3164 9.51953C10.9023 9.5 11.791 9.44141 12.9824 9.34375C13.0801 8.44531 13.1289 7.67383 13.1289 7.0293C13.1484 6.36523 13.1387 5.80859 13.0996 5.35938C13.0605 4.85156 13.002 4.42188 12.9238 4.07031C12.8652 3.875 12.7773 3.64063 12.6602 3.36719C12.5625 3.13281 12.4258 2.84961 12.25 2.51758C12.0938 2.16602 11.8789 1.74609 11.6055 1.25781C12.1133 1.33594 12.5625 1.39453 12.9531 1.43359C13.3633 1.45312 13.7051 1.47266 13.9785 1.49219C14.291 1.51172 14.5547 1.52148 14.7695 1.52148C14.9844 1.52148 15.2676 1.51172 15.6191 1.49219C15.9121 1.47266 16.2734 1.46289 16.7031 1.46289C17.1328 1.44336 17.6602 1.41406 18.2852 1.375C18.1289 1.64844 17.9922 1.93164 17.875 2.22461C17.7578 2.51758 17.6602 2.78125 17.582 3.01562C17.5039 3.28906 17.4258 3.5625 17.3477 3.83594C17.25 4.24609 17.1621 4.8418 17.084 5.62305C17.0254 6.4043 16.9668 7.27344 16.9082 8.23047C16.8691 9.1875 16.8301 10.1836 16.791 11.2188C16.7715 12.2539 16.752 13.2305 16.7324 14.1484C16.7324 15.0664 16.7422 15.8867 16.7617 16.6094C16.7812 17.3125 16.8203 17.8105 16.8789 18.1035C16.9375 18.4551 17.0352 18.8164 17.1719 19.1875C17.2891 19.5195 17.4453 19.8809 17.6406 20.2715C17.8359 20.6426 18.0898 20.9941 18.4023 21.3262L11.3418 21.8535C11.6348 21.5801 11.8691 21.3164 12.0449 21.0625C12.2207 20.7891 12.3574 20.5547 12.4551 20.3594C12.5527 20.1445 12.6211 19.9395 12.6602 19.7441C12.6797 19.5098 12.709 19.0996 12.748 18.5137C12.7871 18.0254 12.8262 17.332 12.8652 16.4336C12.9043 15.5352 12.9434 14.3438 12.9824 12.8594C12.709 12.8594 12.377 12.8691 11.9863 12.8887C11.6152 12.8887 11.2637 12.8984 10.9316 12.918C10.541 12.9375 10.1309 12.9473 9.70117 12.9473C9.27148 12.9668 8.82227 12.9863 8.35352 13.0059C7.96289 13.0449 7.52344 13.084 7.03516 13.123C6.56641 13.1426 6.09766 13.1719 5.62891 13.2109C5.58984 14.0312 5.58984 14.7539 5.62891 15.3789C5.66797 15.9844 5.72656 16.502 5.80469 16.9316C5.88281 17.4395 5.98047 17.8789 6.09766 18.25C6.21484 18.6016 6.3418 18.9531 6.47852 19.3047C6.5957 19.6172 6.73242 19.9492 6.88867 20.3008C7.06445 20.6523 7.24023 20.9648 7.41602 21.2383C7.04492 21.1992 6.70312 21.1699 6.39062 21.1504C6.07812 21.1113 5.80469 21.0723 5.57031 21.0332C5.29688 21.0137 5.0332 20.9941 4.7793 20.9746C4.52539 20.9746 4.22266 20.9648 3.87109 20.9453C3.55859 20.9258 3.16797 20.916 2.69922 20.916C2.23047 20.8965 1.68359 20.8867 1.05859 20.8867C1.42969 20.5156 1.72266 20.1543 1.9375 19.8027C2.17188 19.4316 2.33789 19.0996 2.43555 18.8066C2.55273 18.4551 2.63086 18.1328 2.66992 17.8398C2.68945 17.5859 2.69922 17.1074 2.69922 16.4043C2.71875 15.7012 2.71875 14.9004 2.69922 14.002C2.69922 13.084 2.68945 12.127 2.66992 11.1309C2.65039 10.1152 2.62109 9.16797 2.58203 8.28906C2.5625 7.41016 2.5332 6.6582 2.49414 6.0332C2.47461 5.38867 2.45508 4.98828 2.43555 4.83203C2.33789 4.48047 2.19141 4.09961 1.99609 3.68945C1.82031 3.35742 1.58594 2.97656 1.29297 2.54688C1 2.09766 0.599609 1.64844 0.0917969 1.19922ZM18.9883 1.81445C19.6523 1.89258 20.209 1.95117 20.6582 1.99023C21.127 2.00977 21.5078 2.03906 21.8008 2.07812C22.1523 2.11719 22.4258 2.13672 22.6211 2.13672C22.8359 2.15625 23.1582 2.14648 23.5879 2.10742C23.959 2.06836 24.457 2.01953 25.082 1.96094C25.7266 1.90234 26.5469 1.81445 27.543 1.69727C27.0938 2.08789 26.7324 2.46875 26.459 2.83984C26.2051 3.19141 26.0098 3.50391 25.873 3.77734C25.6973 4.10938 25.5898 4.42188 25.5508 4.71484C25.4727 5.18359 25.4043 5.82812 25.3457 6.64844C25.3066 7.44922 25.2676 8.32812 25.2285 9.28516C25.1895 10.2422 25.1699 11.2285 25.1699 12.2441C25.1699 13.2598 25.1797 14.2266 25.1992 15.1445C25.2383 16.043 25.2969 16.8438 25.375 17.5469C25.4727 18.25 25.5898 18.7578 25.7266 19.0703C25.9219 19.4219 26.127 19.7734 26.3418 20.125C26.5371 20.418 26.7715 20.7207 27.0449 21.0332C27.3184 21.3457 27.6309 21.5996 27.9824 21.7949C26.8301 21.7363 25.9121 21.707 25.2285 21.707H24.1738C23.8613 21.707 23.4609 21.7266 22.9727 21.7656C22.5625 21.8047 22.0449 21.8438 21.4199 21.8828C20.7949 21.9219 20.043 21.9805 19.1641 22.0586C19.6133 21.5703 19.9648 21.1016 20.2188 20.6523C20.4727 20.2031 20.6777 19.8125 20.834 19.4805C21.0098 19.0898 21.127 18.7188 21.1855 18.3672C21.2637 17.8594 21.3223 17.2344 21.3613 16.4922C21.4199 15.7305 21.459 14.9199 21.4785 14.0605C21.498 13.1816 21.498 12.293 21.4785 11.3945C21.4785 10.4766 21.459 9.59766 21.4199 8.75781C21.3809 7.91797 21.3223 7.15625 21.2441 6.47266C21.1855 5.78906 21.1074 5.24219 21.0098 4.83203C20.9512 4.57813 20.834 4.29492 20.6582 3.98242C20.502 3.70898 20.2871 3.39648 20.0137 3.04492C19.7598 2.67383 19.418 2.26367 18.9883 1.81445ZM27.5137 1.11133C28.1973 1.20898 28.793 1.28711 29.3008 1.3457C29.8086 1.4043 30.2285 1.45312 30.5605 1.49219C30.9512 1.53125 31.2832 1.56055 31.5566 1.58008C31.8691 1.61914 32.25 1.59961 32.6992 1.52148C33.168 1.44336 33.666 1.36523 34.1934 1.28711C34.7207 1.18945 35.2676 1.11133 35.834 1.05273C36.4004 0.994141 36.9473 0.994141 37.4746 1.05273C37.8262 1.0918 38.2754 1.16992 38.8223 1.28711C39.3691 1.4043 39.9453 1.58984 40.5508 1.84375C41.1758 2.09766 41.8008 2.42969 42.4258 2.83984C43.0508 3.25 43.6172 3.76758 44.125 4.39258C44.6328 5.01758 45.0527 5.75977 45.3848 6.61914C45.7168 7.47852 45.9023 8.48438 45.9414 9.63672C46 11.3555 45.8438 12.918 45.4727 14.3242C45.1016 15.7305 44.5254 16.9316 43.7441 17.9277C42.9824 18.9238 42.0156 19.7051 40.8438 20.2715C39.6719 20.8379 38.3047 21.1504 36.7422 21.209C35.5508 21.3066 34.3789 21.3945 33.2266 21.4727C32.7383 21.5117 32.2207 21.541 31.6738 21.5605C31.1465 21.5801 30.6191 21.5996 30.0918 21.6191C29.5645 21.6191 29.0566 21.6094 28.5684 21.5898C28.0801 21.5703 27.6309 21.541 27.2207 21.502C27.6699 21.2871 28.0312 21.0723 28.3047 20.8574C28.5977 20.6426 28.8223 20.457 28.9785 20.3008C29.1543 20.1055 29.2812 19.9297 29.3594 19.7734C29.3984 19.5586 29.457 19.1387 29.5352 18.5137C29.5938 17.9863 29.6719 17.2344 29.7695 16.2578C29.8672 15.2812 29.9844 13.9531 30.1211 12.2734L30.2969 10.1934C30.3945 8.9043 30.4336 7.84961 30.4141 7.0293C30.4141 6.20898 30.3945 5.56445 30.3555 5.0957C30.2969 4.54883 30.2188 4.14844 30.1211 3.89453C30.043 3.67969 29.8965 3.42578 29.6816 3.13281C29.4863 2.89844 29.2129 2.61523 28.8613 2.2832C28.5293 1.93164 28.0801 1.54102 27.5137 1.11133ZM33.6953 11.8926C33.7344 13.6309 33.8223 14.9688 33.959 15.9062C34.1152 16.8242 34.2812 17.5078 34.457 17.957C34.6719 18.4648 34.9062 18.7676 35.1602 18.8652C35.5312 18.8652 35.9512 18.709 36.4199 18.3965C36.8887 18.0645 37.3477 17.5664 37.7969 16.9023C38.2656 16.2383 38.6855 15.4082 39.0566 14.4121C39.4473 13.416 39.7305 12.2539 39.9062 10.9258C40.082 9.59766 40.0332 8.42578 39.7598 7.41016C39.4863 6.39453 39.125 5.54492 38.6758 4.86133C38.2266 4.1582 37.7676 3.63086 37.2988 3.2793C36.8301 2.9082 36.4785 2.72266 36.2441 2.72266C35.9707 2.72266 35.7266 2.80078 35.5117 2.95703C35.2969 3.09375 34.9941 3.41602 34.6035 3.92383C34.4082 4.19727 34.2324 4.58789 34.0762 5.0957C33.9395 5.54492 33.8223 6.14062 33.7246 6.88281C33.627 7.625 33.5977 8.58203 33.6367 9.75391L33.6953 11.8926ZM45.0625 1.99023C46.4297 2.0293 47.5625 2.05859 48.4609 2.07812C49.3789 2.07812 50.1211 2.07812 50.6875 2.07812H52.2402H60.9707C61.0098 2.46875 61.0391 2.84961 61.0586 3.2207C61.0977 3.57227 61.1172 3.88477 61.1172 4.1582C61.1172 4.49023 61.1074 4.79297 61.0879 5.06641C61.0684 5.33984 61.0391 5.63281 61 5.94531C60.9609 6.21875 60.9219 6.51172 60.8828 6.82422C60.8438 7.13672 60.7754 7.45898 60.6777 7.79102C60.4043 6.73633 60.0332 5.93555 59.5645 5.38867C59.1152 4.8418 58.6562 4.44141 58.1875 4.1875C57.6406 3.89453 57.0645 3.73828 56.459 3.71875C55.6582 3.75781 55.0332 3.82617 54.584 3.92383C54.1348 4.02148 53.7832 4.1582 53.5293 4.33398C53.2754 4.50977 53.0801 4.71484 52.9434 4.94922C52.8262 5.16406 52.6992 5.4082 52.5625 5.68164C52.4453 5.91602 52.3379 6.27734 52.2402 6.76562C52.1426 7.17578 52.0449 7.73242 51.9473 8.43555C51.8691 9.13867 51.7812 10.0469 51.6836 11.1602C52.2109 11.0039 52.6309 10.8574 52.9434 10.7207C53.2754 10.584 53.5391 10.4668 53.7344 10.3691C53.9492 10.252 54.1055 10.1445 54.2031 10.0469C54.2812 9.92969 54.3984 9.71484 54.5547 9.40234C54.6719 9.12891 54.8281 8.75781 55.0234 8.28906C55.2383 7.82031 55.4922 7.17578 55.7852 6.35547C55.8242 7.25391 55.8438 8.00586 55.8438 8.61133C55.8438 9.19727 55.8535 9.67578 55.873 10.0469C55.873 10.4766 55.8828 10.8184 55.9023 11.0723V12.1855C55.9023 12.5957 55.9023 13.1523 55.9023 13.8555C55.9219 14.5391 55.9512 15.4082 55.9902 16.4629C55.7559 15.7402 55.541 15.1738 55.3457 14.7637C55.1699 14.334 55.0137 14.0117 54.877 13.7969C54.7207 13.543 54.584 13.3672 54.4668 13.2695C54.3301 13.2305 54.1445 13.1914 53.9102 13.1523C53.6953 13.1328 53.4219 13.123 53.0898 13.123C52.7773 13.123 52.377 13.1719 51.8887 13.2695C51.8301 14.3438 51.8203 15.2129 51.8594 15.877C51.918 16.5215 51.9961 17.0195 52.0938 17.3711C52.1914 17.7812 52.3086 18.0742 52.4453 18.25C52.6211 18.4258 52.9727 18.5723 53.5 18.6895C54.0273 18.7871 54.623 18.8262 55.2871 18.8066C55.9707 18.7676 56.6641 18.6504 57.3672 18.4551C58.0703 18.2598 58.6953 17.9375 59.2422 17.4883C59.6523 17.1172 60.0918 16.6484 60.5605 16.082C60.9512 15.5938 61.3809 14.9785 61.8496 14.2363C62.3379 13.4941 62.8164 12.5957 63.2852 11.541C63.207 12.4199 63.1484 13.1523 63.1094 13.7383C63.0898 14.3047 63.0605 14.7637 63.0215 15.1152C62.9824 15.5254 62.9531 15.8379 62.9336 16.0527C62.9336 16.2871 62.9043 16.6191 62.8457 17.0488C62.8066 17.4199 62.7383 17.9277 62.6406 18.5723C62.5625 19.1973 62.4551 19.998 62.3184 20.9746C61.4004 20.9941 60.5312 21.0137 59.7109 21.0332C58.8906 21.0332 58.168 21.043 57.543 21.0625C56.8008 21.082 56.1172 21.1016 55.4922 21.1211C54.8477 21.1211 54.1348 21.1504 53.3535 21.209C52.6699 21.248 51.8594 21.3066 50.9219 21.3848C50.0039 21.4629 48.9883 21.5703 47.875 21.707C47.9727 20.3789 48.041 19.1289 48.0801 17.957C48.1387 16.7656 48.1777 15.7207 48.1973 14.8223C48.2168 13.7676 48.2168 12.791 48.1973 11.8926C48.2949 9.64648 48.2559 7.83008 48.0801 6.44336C47.9043 5.05664 47.6992 4.16797 47.4648 3.77734C47.3477 3.64063 47.1816 3.47461 46.9668 3.2793C46.791 3.12305 46.5469 2.9375 46.2344 2.72266C45.9219 2.50781 45.5312 2.26367 45.0625 1.99023Z" fill="#595DEB"/>
</svg>
