<svg width="21" height="20" viewBox="0 0 21 20" fill="none" xmlns="http://www.w3.org/2000/svg">
<path d="M8.59789 2.8541C9.19659 1.01148 11.8034 1.01148 12.4021 2.8541L13.0819 4.9463C13.3497 5.77035 14.1176 6.32827 14.984 6.32827H17.1839C19.1213 6.32827 19.9269 8.8075 18.3595 9.9463L16.5797 11.2394C15.8788 11.7486 15.5854 12.6514 15.8532 13.4754L16.533 15.5676C17.1317 17.4102 15.0227 18.9425 13.4553 17.8037L11.6756 16.5106C10.9746 16.0014 10.0254 16.0014 9.32443 16.5106L7.5447 17.8037C5.97727 18.9425 3.86831 17.4102 4.46701 15.5676L5.14681 13.4754C5.41456 12.6514 5.12124 11.7486 4.42027 11.2394L2.64053 9.94631C1.07311 8.8075 1.87866 6.32827 3.8161 6.32827H6.01597C6.88243 6.32827 7.65034 5.77035 7.91809 4.9463L8.59789 2.8541Z" stroke="#595DEB" stroke-width="2"/>
</svg>
