<svg width="26" height="24" viewBox="0 0 26 24" fill="none" xmlns="http://www.w3.org/2000/svg">
<path d="M11.0979 2.8541C11.6966 1.01148 14.3034 1.01148 14.9021 2.8541L16.1432 6.67376C16.4109 7.49781 17.1789 8.05573 18.0453 8.05573H22.0615C23.999 8.05573 24.8045 10.535 23.2371 11.6738L19.9879 14.0344C19.2869 14.5437 18.9936 15.4465 19.2614 16.2705L20.5024 20.0902C21.1012 21.9328 18.9922 23.465 17.4248 22.3262L14.1756 19.9656C13.4746 19.4563 12.5254 19.4563 11.8244 19.9656L8.57523 22.3262C7.0078 23.465 4.89885 21.9328 5.49755 20.0902L6.73863 16.2705C7.00638 15.4465 6.71306 14.5437 6.01209 14.0344L2.76289 11.6738C1.19546 10.535 2.00102 8.05573 3.93846 8.05573H7.95469C8.82115 8.05573 9.58906 7.49781 9.8568 6.67376L11.0979 2.8541Z" stroke="#7751E1" stroke-width="2"/>
</svg>
