<svg width="17" height="17" viewBox="0 0 17 17" fill="none" xmlns="http://www.w3.org/2000/svg">
<path d="M7.90605 1.2127C8.2054 0.291387 9.50881 0.291384 9.80816 1.21269L11.0381 4.99805C11.172 5.41007 11.5559 5.68903 11.9892 5.68903L15.9693 5.68903C16.938 5.68903 17.3408 6.92865 16.5571 7.49805L13.3371 9.83753C12.9866 10.0922 12.8399 10.5435 12.9738 10.9556L14.2038 14.7409C14.5031 15.6622 13.4486 16.4284 12.6649 15.859L9.44489 13.5195C9.09441 13.2648 8.61981 13.2648 8.26932 13.5195L5.04931 15.859C4.2656 16.4284 3.21111 15.6622 3.51047 14.7409L4.7404 10.9556C4.87428 10.5435 4.72762 10.0922 4.37713 9.83753L1.15712 7.49805C0.373403 6.92865 0.776176 5.68903 1.7449 5.68903L5.72506 5.68903C6.15828 5.68903 6.54224 5.41007 6.67612 4.99805L7.90605 1.2127Z" fill="#7751E1"/>
</svg>
