<svg width="106" height="37" viewBox="0 0 106 37" fill="none" xmlns="http://www.w3.org/2000/svg">
<path d="M0.486328 1.33203C1.62565 1.46224 2.58594 1.5599 3.36719 1.625C4.14844 1.65755 4.76693 1.6901 5.22266 1.72266C5.77604 1.75521 6.21549 1.77148 6.54102 1.77148C7.0944 1.77148 7.72917 1.75521 8.44531 1.72266C9.0638 1.6901 9.77995 1.64128 10.5938 1.57617C11.4401 1.47852 12.3516 1.33203 13.3281 1.13672C12.8724 1.625 12.498 2.09701 12.2051 2.55273C11.9121 2.97591 11.6842 3.36654 11.5215 3.72461C11.3262 4.11523 11.1634 4.47331 11.0332 4.79883C10.903 5.22201 10.7565 5.87305 10.5938 6.75195C10.431 7.50065 10.252 8.55859 10.0566 9.92578C9.89388 11.293 9.68229 13.0833 9.42188 15.2969C10.5286 15.3294 11.4889 15.3457 12.3027 15.3457C13.1165 15.3132 13.8001 15.2969 14.3535 15.2969H15.9648C16.4206 15.2643 16.9414 15.2318 17.5273 15.1992C18.5039 15.1667 19.985 15.069 21.9707 14.9062C22.1335 13.4089 22.2148 12.123 22.2148 11.0488C22.2474 9.94206 22.2311 9.01432 22.166 8.26562C22.1009 7.41927 22.0033 6.70312 21.873 6.11719C21.7754 5.79167 21.6289 5.40104 21.4336 4.94531C21.2708 4.55469 21.043 4.08268 20.75 3.5293C20.4896 2.94336 20.1315 2.24349 19.6758 1.42969C20.5221 1.5599 21.2708 1.65755 21.9219 1.72266C22.6055 1.75521 23.1751 1.78776 23.6309 1.82031C24.1517 1.85286 24.5911 1.86914 24.9492 1.86914C25.3073 1.86914 25.7793 1.85286 26.3652 1.82031C26.8535 1.78776 27.4557 1.77148 28.1719 1.77148C28.888 1.73893 29.7669 1.6901 30.8086 1.625C30.5482 2.08073 30.3203 2.55273 30.125 3.04102C29.9297 3.5293 29.7669 3.96875 29.6367 4.35938C29.5065 4.8151 29.3763 5.27083 29.2461 5.72656C29.0833 6.41016 28.9368 7.40299 28.8066 8.70508C28.709 10.0072 28.6113 11.4557 28.5137 13.0508C28.4486 14.6458 28.3835 16.306 28.3184 18.0312C28.2858 19.7565 28.2533 21.3841 28.2207 22.9141C28.2207 24.444 28.237 25.8112 28.2695 27.0156C28.3021 28.1875 28.3672 29.0176 28.4648 29.5059C28.5625 30.0918 28.7253 30.694 28.9531 31.3125C29.1484 31.8659 29.4089 32.4681 29.7344 33.1191C30.0599 33.7376 30.4831 34.3236 31.0039 34.877L19.2363 35.7559C19.7246 35.3001 20.1152 34.8607 20.4082 34.4375C20.7012 33.9818 20.929 33.5911 21.0918 33.2656C21.2546 32.9076 21.3685 32.5658 21.4336 32.2402C21.4661 31.8496 21.515 31.166 21.5801 30.1895C21.6452 29.3757 21.7103 28.2201 21.7754 26.7227C21.8405 25.2253 21.9056 23.2396 21.9707 20.7656C21.515 20.7656 20.9616 20.7819 20.3105 20.8145C19.6921 20.8145 19.1061 20.8307 18.5527 20.8633C17.9017 20.8958 17.2181 20.9121 16.502 20.9121C15.7858 20.9447 15.0371 20.9772 14.2559 21.0098C13.6048 21.0749 12.8724 21.14 12.0586 21.2051C11.2773 21.2376 10.4961 21.2865 9.71484 21.3516C9.64974 22.7188 9.64974 23.9232 9.71484 24.9648C9.77995 25.974 9.8776 26.8366 10.0078 27.5527C10.138 28.3991 10.3008 29.1315 10.4961 29.75C10.6914 30.3359 10.903 30.9219 11.1309 31.5078C11.3262 32.0286 11.554 32.582 11.8145 33.168C12.1074 33.7539 12.4004 34.2747 12.6934 34.7305C12.0749 34.6654 11.5052 34.6165 10.9844 34.584C10.4635 34.5189 10.0078 34.4538 9.61719 34.3887C9.16146 34.3561 8.72201 34.3236 8.29883 34.291C7.87565 34.291 7.37109 34.2747 6.78516 34.2422C6.26432 34.2096 5.61328 34.1934 4.83203 34.1934C4.05078 34.1608 3.13932 34.1445 2.09766 34.1445C2.71615 33.526 3.20443 32.9238 3.5625 32.3379C3.95312 31.7194 4.22982 31.166 4.39258 30.6777C4.58789 30.0918 4.7181 29.5547 4.7832 29.0664C4.81576 28.6432 4.83203 27.8457 4.83203 26.6738C4.86458 25.502 4.86458 24.1673 4.83203 22.6699C4.83203 21.14 4.81576 19.5449 4.7832 17.8848C4.75065 16.1921 4.70182 14.6133 4.63672 13.1484C4.60417 11.6836 4.55534 10.4303 4.49023 9.38867C4.45768 8.31445 4.42513 7.64714 4.39258 7.38672C4.22982 6.80078 3.98568 6.16602 3.66016 5.48242C3.36719 4.92904 2.97656 4.29427 2.48828 3.57812C2 2.82943 1.33268 2.08073 0.486328 1.33203ZM31.9805 2.35742C33.0872 2.48763 34.015 2.58529 34.7637 2.65039C35.5449 2.68294 36.1797 2.73177 36.668 2.79688C37.2539 2.86198 37.7096 2.89453 38.0352 2.89453C38.3932 2.92708 38.9303 2.91081 39.6465 2.8457C40.265 2.7806 41.0951 2.69922 42.1367 2.60156C43.2109 2.50391 44.5781 2.35742 46.2383 2.16211C45.4896 2.81315 44.8874 3.44792 44.4316 4.06641C44.0085 4.65234 43.6829 5.17318 43.4551 5.62891C43.1621 6.18229 42.9831 6.70312 42.918 7.19141C42.7878 7.97266 42.6738 9.04688 42.5762 10.4141C42.5111 11.7487 42.446 13.2135 42.3809 14.8086C42.3158 16.4036 42.2832 18.0475 42.2832 19.7402C42.2832 21.4329 42.2995 23.0443 42.332 24.5742C42.3971 26.0716 42.4948 27.4062 42.625 28.5781C42.7878 29.75 42.9831 30.5964 43.2109 31.1172C43.5365 31.7031 43.8783 32.2891 44.2363 32.875C44.5618 33.3633 44.9525 33.8678 45.4082 34.3887C45.8639 34.9095 46.3848 35.3327 46.9707 35.6582C45.0501 35.5605 43.5202 35.5117 42.3809 35.5117H40.623C40.1022 35.5117 39.4349 35.5443 38.6211 35.6094C37.9375 35.6745 37.0749 35.7396 36.0332 35.8047C34.9915 35.8698 33.7383 35.9674 32.2734 36.0977C33.0221 35.2839 33.6081 34.5026 34.0312 33.7539C34.4544 33.0052 34.7962 32.3542 35.0566 31.8008C35.3496 31.1497 35.5449 30.5312 35.6426 29.9453C35.7728 29.099 35.8704 28.0573 35.9355 26.8203C36.0332 25.5508 36.0983 24.1999 36.1309 22.7676C36.1634 21.3027 36.1634 19.8216 36.1309 18.3242C36.1309 16.7943 36.0983 15.3294 36.0332 13.9297C35.9681 12.5299 35.8704 11.2604 35.7402 10.1211C35.6426 8.98177 35.5124 8.07031 35.3496 7.38672C35.252 6.96354 35.0566 6.49154 34.7637 5.9707C34.5033 5.51497 34.1452 4.99414 33.6895 4.4082C33.2663 3.78971 32.6966 3.10612 31.9805 2.35742ZM46.1895 1.18555C47.3288 1.34831 48.3216 1.47852 49.168 1.57617C50.0143 1.67383 50.7142 1.75521 51.2676 1.82031C51.9186 1.88542 52.472 1.93424 52.9277 1.9668C53.4486 2.0319 54.0833 1.99935 54.832 1.86914C55.6133 1.73893 56.4434 1.60872 57.3223 1.47852C58.2012 1.31576 59.1126 1.18555 60.0566 1.08789C61.0007 0.990234 61.9121 0.990234 62.791 1.08789C63.377 1.15299 64.1257 1.2832 65.0371 1.47852C65.9486 1.67383 66.9089 1.98307 67.918 2.40625C68.9596 2.82943 70.0013 3.38281 71.043 4.06641C72.0846 4.75 73.0286 5.61263 73.875 6.6543C74.7214 7.69596 75.4212 8.93294 75.9746 10.3652C76.528 11.7975 76.8372 13.474 76.9023 15.3945C77 18.2591 76.7396 20.8633 76.1211 23.207C75.5026 25.5508 74.5423 27.5527 73.2402 29.2129C71.9707 30.873 70.3594 32.1751 68.4062 33.1191C66.4531 34.0632 64.1745 34.584 61.5703 34.6816C59.5846 34.8444 57.6315 34.9909 55.7109 35.1211C54.8971 35.1862 54.0345 35.235 53.123 35.2676C52.2441 35.3001 51.3652 35.3327 50.4863 35.3652C49.6074 35.3652 48.7611 35.349 47.9473 35.3164C47.1335 35.2839 46.3848 35.235 45.7012 35.1699C46.4499 34.8118 47.0521 34.4538 47.5078 34.0957C47.9961 33.7376 48.3704 33.4284 48.6309 33.168C48.9238 32.8424 49.1354 32.5495 49.2656 32.2891C49.3307 31.931 49.4284 31.2311 49.5586 30.1895C49.6562 29.3105 49.7865 28.0573 49.9492 26.4297C50.112 24.8021 50.3073 22.5885 50.5352 19.7891L50.8281 16.3223C50.9909 14.1738 51.056 12.416 51.0234 11.0488C51.0234 9.68164 50.9909 8.60742 50.9258 7.82617C50.8281 6.91471 50.6979 6.2474 50.5352 5.82422C50.4049 5.46615 50.1608 5.04297 49.8027 4.55469C49.4772 4.16406 49.0215 3.69206 48.4355 3.13867C47.8822 2.55273 47.1335 1.90169 46.1895 1.18555ZM56.4922 19.1543C56.5573 22.0514 56.7038 24.2812 56.9316 25.8438C57.1921 27.3737 57.4688 28.513 57.7617 29.2617C58.1198 30.1081 58.5104 30.6126 58.9336 30.7754C59.5521 30.7754 60.252 30.515 61.0332 29.9941C61.8145 29.4408 62.5794 28.6107 63.3281 27.5039C64.1094 26.3971 64.8092 25.0137 65.4277 23.3535C66.0788 21.6934 66.5508 19.7565 66.8438 17.543C67.1367 15.3294 67.0553 13.3763 66.5996 11.6836C66.1439 9.99089 65.5417 8.57487 64.793 7.43555C64.0443 6.26367 63.2793 5.38477 62.498 4.79883C61.7168 4.18034 61.1309 3.87109 60.7402 3.87109C60.2845 3.87109 59.8776 4.0013 59.5195 4.26172C59.1615 4.48958 58.6569 5.02669 58.0059 5.87305C57.6803 6.32878 57.3874 6.97982 57.127 7.82617C56.8991 8.57487 56.7038 9.56771 56.541 10.8047C56.3783 12.0417 56.3294 13.6367 56.3945 15.5898L56.4922 19.1543ZM75.4375 2.65039C77.7161 2.71549 79.6042 2.76432 81.1016 2.79688C82.6315 2.79688 83.8685 2.79688 84.8125 2.79688H87.4004H101.951C102.016 3.44792 102.065 4.08268 102.098 4.70117C102.163 5.28711 102.195 5.80794 102.195 6.26367C102.195 6.81706 102.179 7.32161 102.146 7.77734C102.114 8.23307 102.065 8.72135 102 9.24219C101.935 9.69792 101.87 10.1862 101.805 10.707C101.74 11.2279 101.626 11.765 101.463 12.3184C101.007 10.5605 100.389 9.22591 99.6074 8.31445C98.8587 7.40299 98.0938 6.73568 97.3125 6.3125C96.401 5.82422 95.4408 5.5638 94.4316 5.53125C93.097 5.59635 92.0553 5.71029 91.3066 5.87305C90.5579 6.03581 89.972 6.26367 89.5488 6.55664C89.1257 6.84961 88.8001 7.19141 88.5723 7.58203C88.377 7.9401 88.1654 8.34701 87.9375 8.80273C87.7422 9.19336 87.5632 9.79557 87.4004 10.6094C87.2376 11.293 87.0749 12.2207 86.9121 13.3926C86.7819 14.5645 86.6354 16.0781 86.4727 17.9336C87.3516 17.6732 88.0514 17.429 88.5723 17.2012C89.1257 16.9733 89.5651 16.778 89.8906 16.6152C90.2487 16.4199 90.5091 16.2409 90.6719 16.0781C90.8021 15.8828 90.9974 15.5247 91.2578 15.0039C91.4531 14.5482 91.7135 13.9297 92.0391 13.1484C92.3971 12.3672 92.8203 11.293 93.3086 9.92578C93.3737 11.4232 93.4062 12.6764 93.4062 13.6855C93.4062 14.6621 93.4225 15.4596 93.4551 16.0781C93.4551 16.7943 93.4714 17.3639 93.5039 17.7871V19.6426C93.5039 20.3262 93.5039 21.2539 93.5039 22.4258C93.5365 23.5651 93.5853 25.0137 93.6504 26.7715C93.2598 25.5671 92.9017 24.623 92.5762 23.9395C92.2832 23.2233 92.0228 22.6862 91.7949 22.3281C91.5345 21.9049 91.3066 21.612 91.1113 21.4492C90.8835 21.3841 90.5742 21.319 90.1836 21.2539C89.8255 21.2214 89.3698 21.2051 88.8164 21.2051C88.2956 21.2051 87.6283 21.2865 86.8145 21.4492C86.7168 23.2396 86.7005 24.6882 86.7656 25.7949C86.8633 26.8691 86.9935 27.6992 87.1562 28.2852C87.319 28.9688 87.5143 29.457 87.7422 29.75C88.0352 30.043 88.6211 30.2871 89.5 30.4824C90.3789 30.6452 91.3717 30.7103 92.4785 30.6777C93.6178 30.6126 94.7734 30.4173 95.9453 30.0918C97.1172 29.7663 98.1589 29.2292 99.0703 28.4805C99.7539 27.862 100.486 27.0807 101.268 26.1367C101.919 25.3229 102.635 24.2975 103.416 23.0605C104.23 21.8236 105.027 20.3262 105.809 18.5684C105.678 20.0332 105.581 21.2539 105.516 22.2305C105.483 23.1745 105.434 23.9395 105.369 24.5254C105.304 25.209 105.255 25.7298 105.223 26.0879C105.223 26.4785 105.174 27.0319 105.076 27.748C105.011 28.3665 104.897 29.2129 104.734 30.2871C104.604 31.3288 104.425 32.6634 104.197 34.291C102.667 34.3236 101.219 34.3561 99.8516 34.3887C98.4844 34.3887 97.2799 34.4049 96.2383 34.4375C95.0013 34.4701 93.862 34.5026 92.8203 34.5352C91.7461 34.5352 90.5579 34.584 89.2559 34.6816C88.1165 34.7467 86.7656 34.8444 85.2031 34.9746C83.6732 35.1048 81.9805 35.2839 80.125 35.5117C80.2878 33.2982 80.4017 31.2148 80.4668 29.2617C80.5645 27.276 80.6296 25.5345 80.6621 24.0371C80.6947 22.2793 80.6947 20.6517 80.6621 19.1543C80.8249 15.4108 80.7598 12.3835 80.4668 10.0723C80.1738 7.76107 79.832 6.27995 79.4414 5.62891C79.2461 5.40104 78.9694 5.12435 78.6113 4.79883C78.3184 4.53841 77.9115 4.22917 77.3906 3.87109C76.8698 3.51302 76.2188 3.10612 75.4375 2.65039Z" fill="#7751E1"/>
</svg>
