<svg width="120" height="120" viewBox="0 0 120 120" fill="none" xmlns="http://www.w3.org/2000/svg">
<circle cx="60" cy="60" r="60" fill="white"/>
<path d="M90.7854 59C90.7854 76.6731 76.4585 81.5 58.7854 81.5C41.1123 81.5 26.7854 76.6731 26.7854 59C26.7854 41.3269 41.1123 27 58.7854 27C76.4585 27 90.7854 41.3269 90.7854 59Z" fill="#595DEB"/>
<path fill-rule="evenodd" clip-rule="evenodd" d="M58.7854 78.5002C76.4585 78.5002 90.7854 73.6733 90.7854 56.0002C91.2627 48.6027 88.0211 51.7967 82.5805 57.1574C80.0058 59.6943 76.9385 62.7166 73.5398 65.3311C70.3545 62.7804 64.7886 59.5002 58.2854 59.5002C48.9888 59.5003 43.1493 64.974 40.3651 69.0918C39.9994 68.9716 39.6394 68.8465 39.2854 68.7164C32.8249 66.3417 28.3278 62.2943 26.7854 56.0002C26.7854 73.6733 41.1123 78.5002 58.7854 78.5002Z" fill="url(#paint0_linear_1261_266)"/>
<path d="M90.4532 59.3833C83.088 67.1526 73.8374 72.339 70.2854 77C71.1311 78.3317 66.8266 83.6976 78.2854 86C91.2854 88.612 105.887 78.5601 108.424 68.0729C110.961 57.5857 99.6203 49.7134 90.4532 59.3833Z" fill="#595DEB"/>
<path d="M95.2854 63.0001C88.7527 69.5328 77.3876 75.6833 74.2854 79.5001C70.6253 84.0032 73.0204 85.9192 81.2854 86.5C91.7438 87.2349 104.7 79.3205 108.043 69.8016C110.77 62.0364 104.285 54.0001 95.2854 63.0001Z" fill="url(#paint1_linear_1261_266)"/>
<path d="M29.1167 64.0998C37.7579 68.937 46.1511 74.9399 55.3979 77.2908C54.9204 78.6108 53.0843 82.5689 43.5702 86.8126C33.7628 91.187 19.6743 85.3555 15.4408 76.7648C11.2073 68.1742 15.1779 56.2971 29.1167 64.0998Z" fill="#595DEB"/>
<path d="M23.6609 67.9221C31.7866 69.2542 41.9182 77.7822 45.349 80.366C49.3967 83.4144 50.639 83.9113 43.7485 86.9242C34.3886 91.0169 21.1138 86.1211 16.4062 78.8083C12.5658 72.8428 13.5038 66.2571 23.6609 67.9221Z" fill="url(#paint2_linear_1261_266)"/>
<path d="M74.7854 78.2661C74.7854 86.6973 67.622 89 58.7854 89C49.9488 89 42.7854 86.6973 42.7854 78.2661C42.7854 69.8348 49.9488 63 58.7854 63C67.622 63 74.7854 69.8348 74.7854 78.2661Z" fill="#595DEB"/>
<path d="M74.7854 79.7257C74.7854 85.0971 69.7854 89 58.7854 89C47.7854 89 42.7854 85.0971 42.7854 79.7257C42.7854 71.4615 49.9488 70 58.7854 70C67.622 70 74.7854 71.4615 74.7854 79.7257Z" fill="url(#paint3_linear_1261_266)"/>
<circle cx="49.7854" cy="48" r="3" fill="black"/>
<circle cx="67.7854" cy="48" r="3" fill="black"/>
<path d="M58.2058 52.085C58.6453 52.6133 59.7978 53.3161 60.8921 51.901" stroke="black" stroke-linecap="round"/>
<defs>
<linearGradient id="paint0_linear_1261_266" x1="58.8086" y1="51.6602" x2="58.8086" y2="78.5002" gradientUnits="userSpaceOnUse">
<stop stop-color="#693DE2" stop-opacity="0"/>
<stop offset="1" stop-color="#595DEB"/>
</linearGradient>
<linearGradient id="paint1_linear_1261_266" x1="90.6466" y1="59.0254" x2="90.6466" y2="86.5475" gradientUnits="userSpaceOnUse">
<stop stop-color="#D8CAFF"/>
<stop offset="1" stop-color="#D8CAFF" stop-opacity="0.6"/>
</linearGradient>
<linearGradient id="paint2_linear_1261_266" x1="28.5823" y1="65.5929" x2="33.976" y2="89.4849" gradientUnits="userSpaceOnUse">
<stop stop-color="#D8CAFF"/>
<stop offset="1" stop-color="#D8CAFF" stop-opacity="0.6"/>
</linearGradient>
<linearGradient id="paint3_linear_1261_266" x1="58.7854" y1="70" x2="58.7854" y2="89" gradientUnits="userSpaceOnUse">
<stop offset="0.032153" stop-color="#D8CAFF"/>
<stop offset="1" stop-color="#D8CAFF" stop-opacity="0.6"/>
</linearGradient>
</defs>
</svg>
