<svg width="391" height="215" viewBox="0 0 391 215" fill="none" xmlns="http://www.w3.org/2000/svg">
<rect width="390" height="215" fill="#E4E4FC"/>
<path d="M180.285 27.542C180.129 24.745 182.3 22.3652 185.1 22.266L384.823 15.1836C387.652 15.0833 390 17.3496 390 20.1804V210C390 212.761 387.761 215 385 215H195.497C192.844 215 190.653 212.928 190.505 210.279L180.285 27.542Z" fill="#D4D4D4"/>
<path d="M47.4883 89.4688V92.2852H42.1562V100.516H38.6016V92.2852H33.5156V100.516H29.9336V92.2852H24.7109V89.4688H47.4883ZM27.0078 82.0859C26.9941 78.6543 30.6855 76.4668 36.0312 76.4531C41.377 76.4668 45.1094 78.6543 45.1094 82.0859C45.1094 85.4355 41.377 87.5684 36.0312 87.5547C30.6855 87.5684 26.9941 85.4355 27.0078 82.0859ZM30.5898 82.0859C30.5762 83.8359 32.6953 84.8066 36.0312 84.8203C39.3945 84.8066 41.5 83.8359 41.5 82.0859C41.5 80.2539 39.3945 79.2559 36.0312 79.2422C32.6953 79.2559 30.5762 80.2539 30.5898 82.0859ZM71.3648 75.6328V100.57H67.8648V87.1445H63.4078V84.3008H67.8648V75.6328H71.3648ZM49.9547 93.1328C54.1246 91.2188 56.1617 86.4746 56.1617 81.8672V80.8281H50.9937V78.0391H64.9117V80.8281H59.7437V81.8672C59.7301 86.2422 61.7535 90.8086 65.9508 92.6133L63.9 95.375C61.0016 94.0352 59.0602 91.4238 57.9937 88.252C56.9137 91.6426 54.9312 94.459 52.0328 95.8945L49.9547 93.1328ZM85.9992 78.3945V81.1289H80.0109V85.0938H85.0148V87.7461H80.0109V92.2168C82.677 92.1758 84.632 92.0391 86.9562 91.6562L87.257 94.4727C84.3996 94.9922 82.0207 95.0195 78.3703 95.0195H76.7023V78.3945H85.9992ZM86.1906 87.5V84.7109H88.9797V76.0703H92.2336V99.3945H88.9797V87.5H86.1906ZM94.1477 100.516V75.6328H97.5109V100.516H94.1477ZM114.634 78.9141C114.62 82.5645 117.86 86.4609 123.493 87.418L121.962 90.3164C117.614 89.4551 114.401 87.0078 112.788 83.8223C111.147 86.9805 107.921 89.4414 103.614 90.3164L102.11 87.418C107.647 86.4336 110.887 82.5234 110.915 78.9141V77.1094H114.634V78.9141ZM101.536 97.4531V94.582H124.313V97.4531H101.536ZM147.424 88.4844V91.2461H129.815V77.4648H147.233V80.2812H133.37V82.9062H146.659V85.6406H133.37V88.4844H147.424ZM127.135 97.6172V94.7734H149.912V97.6172H127.135ZM45.7109 109.633V122.293H42.2383V116.113H37.5625V113.352H42.2383V109.633H45.7109ZM24.5469 119.723C28.6758 118.506 30.5215 115.471 30.5352 112.258V110.453H34.0625V112.258C34.0488 115.225 35.7852 118.109 39.75 119.285L37.918 121.965C35.252 121.117 33.3926 119.449 32.3125 117.316C31.2188 119.709 29.2637 121.568 26.3516 122.484L24.5469 119.723ZM29.168 126.012V123.332H45.7109V129.977H32.6406V131.508H46.4219V134.242H29.1953V127.434H42.2656V126.012H29.168ZM73.0875 121.938V124.699H63.7086V128.992H60.2633V124.699H50.3102V121.938H73.0875ZM52.9898 134.078V126.832H56.4625V131.289H70.5719V134.078H52.9898ZM53.1539 119.887V110.727H70.1617V119.887H53.1539ZM56.5719 117.18H66.7437V113.434H56.5719V117.18ZM98.7141 128.801V131.617H75.9367V128.801H85.5617V123.25H89.0617V128.801H98.7141ZM76.8664 121.582C82.0344 120.748 85.1242 117.631 85.425 114.336H77.8234V111.52H96.718V114.336H89.1437C89.4172 117.617 92.5344 120.666 97.8664 121.445L96.4992 124.207C92.1379 123.441 88.9113 121.322 87.298 118.369C85.7258 121.363 82.5266 123.564 78.2336 124.344L76.8664 121.582ZM110.696 115.266C110.682 119.723 112.583 124.221 116.575 126.148L114.47 128.938C111.804 127.611 109.999 125.15 108.973 122.156C107.88 125.369 105.966 128.008 103.149 129.402L100.989 126.586C105.214 124.645 107.196 119.887 107.196 115.266V111.547H110.696V115.266ZM117.669 134.516V109.633H121.169V119.23H124.833V122.184H121.169V134.516H117.669Z" fill="#4A4A4A"/>
<path d="M195.267 39.0687C195.12 36.2817 197.283 33.9141 200.072 33.8091L376.067 27.1856C378.802 27.0827 381.111 29.1969 381.249 31.9298L390.235 209.748C390.379 212.605 388.101 215 385.241 215H209.282C206.623 215 204.429 212.919 204.289 210.263L195.267 39.0687Z" fill="#F7F7F7"/>
<path d="M254.671 21.5557C254.312 18.609 256.585 16.0004 259.553 15.9521L312.919 15.0828C315.711 15.0373 318 17.2888 318 20.0821V38C318 40.7614 315.761 43 313 43H261.71C259.183 43 257.052 41.1135 256.747 38.6043L254.671 21.5557Z" fill="#595DEB"/>
<path d="M227.353 78.5829L238.54 78.0432L238.99 87.3723L227.803 87.9121L227.353 78.5829ZM236.986 79.4397L229.055 79.8224L229.378 86.5146L237.308 86.1319L236.986 79.4397Z" fill="#5E5E5E"/>
<path d="M230.353 112.583L241.54 112.043L241.99 121.372L230.803 121.912L230.353 112.583ZM239.986 113.44L232.055 113.822L232.378 120.515L240.308 120.132L239.986 113.44Z" fill="#5E5E5E"/>
<path d="M234.353 147.583L245.54 147.043L245.99 156.372L234.803 156.912L234.353 147.583ZM243.986 148.44L236.055 148.822L236.378 155.515L244.308 155.132L243.986 148.44Z" fill="#5E5E5E"/>
<path d="M238.353 181.583L249.54 181.043L249.99 190.372L238.803 190.912L238.353 181.583ZM247.986 182.44L240.055 182.822L240.378 189.515L248.308 189.132L247.986 182.44Z" fill="#5E5E5E"/>
</svg>
